<svg xmlns="http://www.w3.org/2000/svg" width="800" height="800" fill="none" viewBox="0 0 24 24"><path stroke="#000" stroke-linecap="round" stroke-linejoin="round" stroke-width="2" d="M11 19H6.2c-1.12 0-1.68 0-2.108-.218a2 2 0 0 1-.874-.874C3 17.48 3 16.92 3 15.8V8.2c0-1.12 0-1.68.218-2.108a2 2 0 0 1 .874-.874C4.52 5 5.08 5 6.2 5h11.6c1.12 0 1.68 0 2.108.218a2 2 0 0 1 .874.874C21 6.52 21 7.08 21 8.2v2.998m-.393-2.936-5.057 3.371c-1.283.856-1.925 1.284-2.618 1.45a4.001 4.001 0 0 1-1.864 0c-.694-.167-1.335-.594-2.618-1.45L3.147 8.1M21 15.167h-.375c-1.024 0-1.917-.415-2.625-1.167-.708.752-1.6 1.167-2.625 1.167H15v1.23c0 2.215 1.275 4.076 3 4.603 1.725-.527 3-2.388 3-4.602v-1.231Z"/></svg>